<mxfile host="app.diagrams.net" modified="2022-02-09T15:18:28.938Z" agent="5.0 (Windows)" etag="Vg6epnucBj5ZnDdyy2BN" version="16.5.4" type="github">
  <diagram id="D3k5Q3T-Qu33-SFmb7JF" name="Page-1">
    <mxGraphModel dx="2062" dy="1150" grid="1" gridSize="10" guides="1" tooltips="1" connect="1" arrows="1" fold="1" page="1" pageScale="1" pageWidth="827" pageHeight="1169" math="0" shadow="0">
      <root>
        <mxCell id="0" />
        <mxCell id="1" parent="0" />
        <mxCell id="vEmKbwLvv37x3d344-J1-1" value="&lt;div&gt;GitHub&lt;/div&gt;" style="ellipse;shape=cloud;whiteSpace=wrap;html=1;align=center;" vertex="1" parent="1">
          <mxGeometry x="80" y="60" width="100" height="60" as="geometry" />
        </mxCell>
      </root>
    </mxGraphModel>
  </diagram>
</mxfile>
